# AST/ASF file generated using VICON BodyLanguage
# -----------------------------------------------
:version 1.10
:name VICON
:units
  mass 1.0
  length 0.45
  angle deg
:documentation
   .ast/.asf automatically generated from VICON data using
   VICON BodyBuilder and BodyLanguage model FoxedUp or BRILLIANT.MOD
:root
   order TX TY TZ RX RY RZ
   axis XYZ
   position 0 0 0  
   orientation 0 0 0 
:bonedata
  begin
     id 1 
     name lhipjoint
     direction 0.623415 -0.642378 0.445763 
     length 2.49859 
     axis 0 0 0  XYZ
  end
  begin
     id 2 
     name lfemur
     direction 0.34202 -0.939693 0  
     length 6.69689  
     axis 0 0 20  XYZ
    dof rx ry rz
    limits (-160.0 20.0)
           (-70.0 70.0)
           (-60.0 70.0)
  end
  begin
     id 3 
     name ltibia
     direction 0.34202 -0.939693 0   
     length 7.37574   
     axis 0 0 20   XYZ
    dof rx
    limits (-10.0 170.0)
  end
  begin
     id 4 
     name lfoot
     direction 0.084323 -0.231675 0.969132   
     length 2.09111   
     axis -90 7.62852e-016 20   XYZ
    dof rx rz
    limits (-45.0 90.0)
           (-70.0 20.0)
  end
  begin
     id 5 
     name ltoes
     direction 1.5357e-011 -4.21957e-011 1   
     length 1.04989   
     axis -90 7.62852e-016 20   XYZ
    dof rx
    limits (-90.0 20.0)
  end
  begin
     id 6 
     name rhipjoint
     direction -0.605402 -0.653903 0.45376   
     length 2.45455  
     axis 0 0 0  XYZ 
  end
  begin
     id 7 
     name rfemur
     direction -0.34202 -0.939693 0   
     length 6.64523   
     axis 0 0 -20   XYZ
    dof rx ry rz
    limits (-160.0 20.0)
           (-70.0 70.0)
           (-70.0 60.0)
  end
  begin
     id 8 
     name rtibia
     direction -0.34202 -0.939693 0   
     length 7.3339   
     axis 0 0 -20   XYZ
    dof rx
    limits (-10.0 170.0)
 end
 begin
     id 9 
     name rfoot
     direction -0.120854 -0.332043 0.93549   
     length 2.23135  
     axis -90 -7.62852e-016 -20   XYZ
    dof rx rz
    limits (-45.0 90.0)
           (-20.0 70.0)
  end
  begin
     id 10 
     name rtoes
     direction -1.53563e-011 -4.21914e-011 1   
     length 1.10614   
     axis -90 -7.62852e-016 -20   XYZ
    dof rx
    limits (-90.0 20.0)
  end
  begin
     id 11 
     name lowerback
     direction 0.0319682 0.998615 -0.0417941   
     length 2.02718   
     axis 0 0 0   XYZ
    dof rx ry rz
    limits (-20.0 45.0)
           (-30.0 30.0)
           (-30.0 30.0)
  end
  begin
     id 12 
     name upperback
     direction 7.63181e-005 0.995808 0.0914691   
     length 1.97539   
     axis 0 0 0   XYZ
    dof rx ry rz
    limits (-20.0 45.0)
           (-30.0 30.0)
           (-30.0 30.0)
  end
  begin
     id 13 
     name thorax
     direction -0.016423 0.993627 0.111514   
     length 2.00349   
     axis 0 0 0   XYZ
    dof rx ry rz
    limits (-20.0 45.0)
           (-30.0 30.0)
           (-30.0 30.0)
  end
  begin
     id 14 
     name lowerneck
     direction -0.174763 0.981668 -0.0760716   
     length 1.71436   
     axis 0 0 0   XYZ
    dof rx ry rz
    limits (-20.0 45.0)
           (-30.0 30.0)
           (-30.0 30.0)
  end
  begin
     id 15 
     name upperneck
     direction 0.345458 0.934587 -0.0848868   
     length 1.72805   
     axis 0 0 0   XYZ
    dof rx ry rz
    limits (-20.0 45.0)
           (-30.0 30.0)
           (-30.0 30.0)
  end
  begin
     id 16
     name head
     direction 0.13001 0.989848 -0.0574291  
     length 1.767  
     axis 0 0 0   XYZ
    dof rx ry rz
    limits (-20.0 45.0)
           (-30.0 30.0)
           (-30.0 30.0)
  end
  begin
     id 17 
     name lclavicle
     direction 0.952951 0.290122 0.0878234  
     length 3.54654  
     axis 0 0 0   XYZ
    dof ry rz
    limits (-20.0 10.0)
           (0.0 20.0)
  end
  begin
     id 18 
     name lhumerus
     direction 1 -4.48957e-011 -4.56525e-028   
     length 5.19807   
     axis 180 -30 -90   XYZ
    dof rx ry rz
    limits (-60.0 90.0)
           (-90.0 90.0)
           (-90.0 90.0)
  end
  begin
     id 19
     name lradius
     direction 1 -4.48979e-011 -2.0317e-027   
     length 3.0937   
     axis 180 -30 -90   XYZ
    dof rx
    limits (-10.0 170.0)
  end
  begin
     id 20
     name lwrist
     direction 1 -4.48953e-011 -3.05809e-027   
     length 1.54685   
     axis 8.48514e-016 90 90   XYZ
    dof ry
    limits (-180.0 0.0)
 end
  begin
     id 21 
     name lhand
     direction 1 -4.48952e-011 -6.11639e-027   
     length 0.672632   
     axis 3.9013e-015 90 90   XYZ
    dof rx rz
    limits (-90.0 90.0)
           (-45.0 45.0)
  end
  begin
     id 22 
     name lfingers
     direction 1 -4.48925e-011 -1.22426e-026   
     length 0.542293   
     axis 7.80276e-015 90 90   XYZ
    dof rx
    limits (0.0 90.0)
  end
  begin
     id 23
     name lthumb
     direction 0.707107 -6.3486e-011 0.707107   
     length 0.778628   
     axis -90 45 5.37419e-014   XYZ
    dof rx rz
    limits (-45.0 45.0)
           (-45.0 45.0)
  end
  begin
     id 24 
     name rclavicle
     direction -0.960732 0.273675 -0.0457849   
     length 3.52079  
     axis 0 0 0   XYZ 
    dof ry rz
    limits (-10.0 20.0)
           (-20.0 0.0)
  end
  begin
     id 25 
     name rhumerus
     direction -1 -4.48976e-011 -1.63613e-027  
     length 5.45222   
     axis 180 30 90   XYZ
    dof rx ry rz
    limits (-90.0 60.0)
           (-90.0 90.0)
           (-90.0 90.0)
  end
  begin
     id 26 
     name rradius
     direction -1 -4.48957e-011 -7.00033e-028   
     length 3.01284   
     axis 180 30 90   XYZ
    dof rx
    limits (-10.0 170.0)
  end
  begin
     id 27 
     name rwrist
     direction -1 -4.48983e-011 -3.05543e-027   
     length 1.50642   
     axis 8.48514e-016 -90 -90   XYZ
    dof ry
    limits (-180.0 0.0)
  end
  begin
     id 28
     name rhand
     direction -1 -4.48984e-011 -6.11072e-027   
     length 0.622296   
     axis 3.9013e-015 -90 -90   XYZ
    dof rx rz
    limits (-90.0 90.0)
           (-45.0 45.0)
  end
  begin
     id 29
     name rfingers
     direction -1 -4.48865e-011 -1.22637e-026   
     length 0.501711   
     axis 7.80276e-015 -90 -90   XYZ
    dof rx
    limits (0.0 90.0)
  end
  begin
     id 30
     name rthumb
     direction -0.707107 -6.34932e-011 0.707107   
     length 0.72036   
     axis -90 -45 -5.37419e-014   XYZ
    dof rx rz
    limits (-45.0 45.0)
           (-45.0 45.0)
  end
:hierarchy
  begin
    root lhipjoint rhipjoint lowerback
    lhipjoint lfemur
    lfemur ltibia
    ltibia lfoot
    lfoot ltoes
    rhipjoint rfemur
    rfemur rtibia
    rtibia rfoot
    rfoot rtoes
    lowerback upperback
    upperback thorax
    thorax lowerneck lclavicle rclavicle
    lowerneck upperneck
    upperneck head
    lclavicle lhumerus
    lhumerus lradius
    lradius lwrist
    lwrist lhand lthumb
    lhand lfingers
    rclavicle rhumerus
    rhumerus rradius
    rradius rwrist
    rwrist rhand rthumb
    rhand rfingers
  end

#!OML:ASF H:\Not Pregnant\Project 1\Capture day 1\Session 1\non-pregnant.ASF
:FULLY-SPECIFIED
:DEGREES
84
root -5.10712 15.3596 38.9909 -172.434 -7.79942 -173.567
lowerback -1.70333 2.01616 10.9445
upperback -0.817689 2.27426 2.45186
thorax 0.446143 1.02371 -3.51679
lowerneck 17.4345 -7.50101 -29.7991
upperneck -15.8218 -18.2841 46.516
head 1.18428 -13.2512 25.4618
rclavicle 1.75427e-014 2.3059e-014
rhumerus -33.3765 26.6978 -97.7087
rradius 40.8916
rwrist 1.30762
rhand -12.9819 -4.22084
rfingers 7.12502
rthumb 13.1107 -33.7887
lclavicle 1.75427e-014 2.3059e-014
lhumerus -38.6838 -29.2087 105.634
lradius 49.3229
lwrist 26.0046
lhand -14.9436 -19.0339
lfingers 7.12502
lthumb 11.2192 10.6462
rfemur -17.8731 0.340273 31.9929
rtibia 33.9108
rfoot -25.3273 3.67017
rtoes -14.311
lfemur -38.6639 -0.260379 -9.44367
ltibia 63.5817
lfoot -12.351 7.25312
ltoes -24.8064
85
root -5.09831 15.3408 38.9675 -172.555 -7.64911 -173.536
lowerback -1.68707 1.95345 10.8547
upperback -0.521551 2.16575 2.57778
thorax 0.724 0.991371 -3.33529
lowerneck 17.1954 -7.49427 -29.6394
upperneck -16.206 -18.1823 46.7188
head 1.10657 -13.2465 25.6073
rclavicle 7.35503e-015 1.59028e-015
rhumerus -32.6068 27.0702 -97.2194
rradius 40.55
rwrist 0.83128
rhand -12.5361 -4.93899
rfingers 7.12502
rthumb 13.5403 -34.4787
lclavicle 7.35503e-015 1.59028e-015
lhumerus -38.216 -29.269 105.664
lradius 49.3542
lwrist 26.9666
lhand -15.7943 -19.0732
lfingers 7.12502
lthumb 10.3986 10.6497
rfemur -17.8133 0.344462 32.064
rtibia 34.2394
rfoot -25.5417 3.7654
rtoes -14.3035
lfemur -39.2303 -0.154525 -9.60217
ltibia 64.1979
lfoot -12.5254 5.79172
ltoes -26.5517
86
root -5.08959 15.3227 38.9419 -172.659 -7.4868 -173.539
lowerback -1.68439 1.8905 10.7327
upperback -0.237082 2.05724 2.68135
thorax 0.997461 0.95791 -3.15935
lowerneck 16.9948 -7.46479 -29.4468
upperneck -16.6302 -18.0463 46.9197
head 0.98811 -13.2327 25.7717
rclavicle -8.94531e-015 5.56597e-015
rhumerus -31.7842 27.2948 -96.6881
rradius 40.0356
rwrist 1.01805
rhand -11.9517 -5.47231
rfingers 7.12502
rthumb 14.1036 -34.9737
lclavicle -8.94531e-015 5.56597e-015
lhumerus -37.6879 -29.1338 105.531
lradius 49.2612
lwrist 27.2636
lhand -16.3074 -19.2997
lfingers 7.12502
lthumb 9.90357 10.4474
rfemur -17.761 0.375415 32.0986
rtibia 34.5762
rfoot -25.7605 3.84265
rtoes -14.2986
lfemur -39.7647 -0.0361593 -9.82521
ltibia 64.6591
lfoot -12.7388 4.37215
ltoes -28.3734
87
root -5.08093 15.3051 38.9142 -172.747 -7.31953 -173.57
lowerback -1.68969 1.82214 10.5829
upperback 0.0325945 1.94275 2.76855
thorax 1.25931 0.919707 -2.98578
lowerneck 16.8147 -7.42059 -29.2287
upperneck -17.037 -17.8898 47.0984
head 0.850754 -13.2088 25.9254
rclavicle -2.57426e-014 -3.26007e-014
rhumerus -30.9186 27.3789 -96.1255
rradius 39.3556
rwrist 1.77091
rhand -11.2502 -5.78838
rfingers 7.12502
rthumb 14.7795 -35.2414
lclavicle -2.57426e-014 -3.26007e-014
lhumerus -37.1921 -28.9286 105.359
lradius 49.172
lwrist 27.5082
lhand -16.8715 -19.5977
lfingers 7.12502
lthumb 9.35929 10.1745
rfemur -17.7159 0.428232 32.1048
rtibia 34.9179
rfoot -25.982 3.89452
rtoes -14.3086
lfemur -40.2711 0.0870368 -10.1054
ltibia 64.9776
lfoot -12.9688 3.0686
ltoes -30.5177
88
root -5.07245 15.2877 38.8863 -172.82 -7.16095 -173.621
lowerback -1.69878 1.75618 10.416
upperback 0.278852 1.83412 2.8388
thorax 1.50014 0.882018 -2.82082
lowerneck 16.6796 -7.351 -28.9989
upperneck -17.4673 -17.709 47.2796
head 0.683488 -13.1811 26.1086
rclavicle -8.84592e-015 -5.725e-014
rhumerus -30.0307 27.307 -95.5422
rradius 38.5053
rwrist 2.9999
rhand -10.769 -5.82367
rfingers 7.12502
rthumb 15.243 -35.2421
lclavicle -8.84592e-015 -5.725e-014
lhumerus -36.7671 -28.66 105.154
lradius 49.1318
lwrist 27.6765
lhand -17.3577 -19.8644
lfingers 7.12502
lthumb 8.89013 9.92829
rfemur -17.684 0.49338 32.0902
rtibia 35.2601
rfoot -26.1988 3.91825
rtoes -14.3405
lfemur -40.7635 0.199072 -10.4335
ltibia 65.1667
lfoot -13.179 1.94264
ltoes -31.0085
89
root -5.06429 15.2708 38.857 -172.885 -7.01044 -173.683
lowerback -1.71236 1.68731 10.2465
upperback 0.510695 1.72291 2.89562
thorax 1.72907 0.84139 -2.66879
lowerneck 16.5615 -7.26566 -28.7608
upperneck -17.8826 -17.5168 47.4541
head 0.507047 -13.1506 26.2991
rclavicle 1.18277e-014 5.96354e-014
rhumerus -29.1178 27.0833 -94.9488
rradius 37.5113
rwrist 4.55131
rhand -10.4333 -5.64656
rfingers 7.12502
rthumb 15.5663 -35.0401
lclavicle 1.18277e-014 5.96354e-014
lhumerus -36.4026 -28.3772 104.944
lradius 49.1467
lwrist 28.028
lhand -17.8779 -20.108
lfingers 7.12502
lthumb 8.3882 9.70545
rfemur -17.6491 0.566394 32.0649
rtibia 35.5935
rfoot -26.4119 3.9236
rtoes -14.3749
lfemur -41.2293 0.297945 -10.793
ltibia 65.2376
lfoot -13.3666 1.02217
ltoes -31.447
90
root -5.05668 15.2544 38.8262 -172.943 -6.87517 -173.746
lowerback -1.72778 1.6165 10.0924
upperback 0.734538 1.60972 2.93841
thorax 1.95202 0.798805 -2.54018
lowerneck 16.4203 -7.19242 -28.5167
upperneck -18.2744 -17.3469 47.6265
head 0.350732 -13.1311 26.4715
rclavicle -2.38542e-015 -5.56597e-014
rhumerus -28.1587 26.7014 -94.344
rradius 36.3854
rwrist 6.28571
rhand -10.2151 -5.33577
rfingers 7.12502
rthumb 15.7765 -34.7128
lclavicle -2.38542e-015 -5.56597e-014
lhumerus -36.0969 -28.1258 104.741
lradius 49.2538
lwrist 28.6913
lhand -18.4952 -20.3704
lfingers 7.12502
lthumb 7.79243 9.46605
rfemur -17.6064 0.638624 32.0376
rtibia 35.9081
rfoot -26.6201 3.91141
rtoes -14.4186
lfemur -41.6727 0.37138 -11.1695
ltibia 65.2002
lfoot -13.5129 0.329779
ltoes -31.8372
91
root -5.04958 15.2388 38.7941 -172.995 -6.76356 -173.806
lowerback -1.73845 1.54037 9.96205
upperback 0.947451 1.49071 2.96899
thorax 2.16192 0.752162 -2.43814
lowerneck 16.2632 -7.1165 -28.2714
upperneck -18.6327 -17.1857 47.8009
head 0.210113 -13.1172 26.6407
rclavicle -2.55438e-014 3.33958e-014
rhumerus -27.1702 26.1595 -93.7431
rradius 35.1541
rwrist 8.0886
rhand -10.1234 -4.97225
rfingers 7.12502
rthumb 15.8649 -34.3423
lclavicle -2.55438e-014 3.33958e-014
lhumerus -35.8394 -27.8989 104.536
lradius 49.4399
lwrist 29.6436
lhand -19.1476 -20.6446
lfingers 7.12502
lthumb 7.16266 9.21419
rfemur -17.5476 0.704615 32.0152
rtibia 36.189
rfoot -26.8185 3.88826
rtoes -14.4512
lfemur -42.094 0.411406 -11.5492
ltibia 65.0615
lfoot -13.6185 -0.137674
ltoes -32.1691
92
root -5.04318 15.2244 38.7604 -173.038 -6.67473 -173.857
lowerback -1.74784 1.45913 9.85966
upperback 1.14506 1.36545 2.9918
thorax 2.35603 0.701103 -2.36031
lowerneck 16.0856 -7.04904 -28.0371
upperneck -18.9625 -17.0486 47.9765
head 0.0946327 -13.1149 26.7993
rclavicle -5.76476e-015 -1.03368e-014
rhumerus -26.168 25.4564 -93.1543
rradius 33.842
rwrist 9.85012
rhand -10.1069 -4.64059
rfingers 7.12502
rthumb 15.8807 -34.0094
lclavicle -5.76476e-015 -1.03368e-014
lhumerus -35.608 -27.6638 104.309
lradius 49.6601
lwrist 30.75
lhand -19.7071 -20.8958
lfingers 7.12502
lthumb 6.62257 8.98063
rfemur -17.4697 0.753127 32.0017
rtibia 36.4242
rfoot -27.0067 3.8676
rtoes -14.477
lfemur -42.4971 0.422649 -11.9222
ltibia 64.8249
lfoot -13.6952 -0.406694
ltoes -32.4472
93
root -5.03757 15.2119 38.725 -173.072 -6.60407 -173.892
lowerback -1.75509 1.37531 9.79096
upperback 1.32182 1.23747 3.00924
thorax 2.52846 0.647215 -2.30733
lowerneck 15.9127 -6.97564 -27.8135
upperneck -19.2559 -16.9193 48.1478
head -0.00878144 -13.1162 26.9566
rclavicle -2.38542e-014 -6.36111e-014
rhumerus -25.1798 24.5831 -92.5886
rradius 32.4705
rwrist 11.5424
rhand -10.1443 -4.41977
rfingers 7.12502
rthumb 15.8447 -33.7914
lclavicle -2.38542e-014 -6.36111e-014
lhumerus -35.4308 -27.4424 104.089
lradius 49.9317
lwrist 32.0819
lhand -20.2644 -21.1141
lfingers 7.12502
lthumb 6.08453 8.77848
rfemur -17.365 0.784501 32.0025
rtibia 36.6002
rfoot -27.1795 3.85473
rtoes -14.4912
lfemur -42.8786 0.412739 -12.2775
ltibia 64.4911
lfoot -13.7452 -0.492488
ltoes -32.6492
94
root -5.03272 15.2015 38.688 -173.098 -6.55008 -173.914
lowerback -1.7653 1.28906 9.75036
upperback 1.48356 1.10561 3.02517
thorax 2.68764 0.59044 -2.27198
lowerneck 15.7402 -6.90418 -27.5994
upperneck -19.5327 -16.8023 48.3153
head -0.101676 -13.1231 27.1089
rclavicle 1.68967e-014 1.66979e-014
rhumerus -24.2 23.5539 -92.0424
rradius 31.0503
rwrist 13.1464
rhand -10.2539 -4.31978
rfingers 7.12502
rthumb 15.7392 -33.6998
lclavicle 1.68967e-014 1.66979e-014
lhumerus -35.2114 -27.1067 103.776
lradius 50.1188
lwrist 33.1089
lhand -20.417 -21.2352
lfingers 7.12502
lthumb 5.9372 8.66166
rfemur -17.2316 0.801544 32.0162
rtibia 36.7103
rfoot -27.3334 3.84867
rtoes -14.5054
lfemur -43.2391 0.384423 -12.6122
ltibia 64.0584
lfoot -13.783 -0.42189
ltoes -32.7944
95
root -5.02869 15.1938 38.6492 -173.11 -6.50788 -173.921
lowerback -1.77714 1.20033 9.73439
upperback 1.61919 0.971208 3.04106
thorax 2.82107 0.530808 -2.25094
lowerneck 15.5909 -6.82825 -27.3966
upperneck -19.781 -16.6928 48.4713
head -0.189993 -13.1324 27.2568
rclavicle -1.17283e-014 -5.24792e-014
rhumerus -23.2622 22.3544 -91.5241
rradius 29.5945
rwrist 14.7321
rhand -10.444 -4.34634
rfingers 7.12502
rthumb 15.5561 -33.7407
lclavicle -1.17283e-014 -5.24792e-014
lhumerus -35.0427 -26.7532 103.472
lradius 50.3119
lwrist 34.2468
lhand -20.5128 -21.2581
lfingers 7.12502
lthumb 5.84477 8.64126
rfemur -17.0704 0.803416 32.0415
rtibia 36.7482
rfoot -27.4648 3.85931
rtoes -14.5122
lfemur -43.5779 0.346163 -12.924
ltibia 63.5249
lfoot -13.8207 -0.226641
ltoes -32.8842
96
root -5.02539 15.1888 38.6093 -173.101 -6.47824 -173.919
lowerback -1.79322 1.11449 9.73477
upperback 1.72868 0.841748 3.0559
thorax 2.93066 0.472265 -2.24026
lowerneck 15.4665 -6.75777 -27.1967
upperneck -20.0122 -16.5991 48.6167
head -0.273523 -13.1484 27.3923
rclavicle -2.83268e-014 -1.27222e-014
rhumerus -22.3632 20.9506 -91.0145
rradius 28.1174
rwrist 16.3774
rhand -10.6981 -4.48649
rfingers 7.12502
rthumb 15.3113 -33.8997
lclavicle -2.83268e-014 -1.27222e-014
lhumerus -34.9135 -26.3966 103.176
lradius 50.506
lwrist 35.4655
lhand -20.52 -21.1351
lfingers 7.12502
lthumb 5.83782 8.76443
rfemur -16.8944 0.800826 32.0732
rtibia 36.7151
rfoot -27.5669 3.87461
rtoes -14.5329
lfemur -43.9068 0.29592 -13.2164
ltibia 62.8905
lfoot -13.8471 0.0804145
ltoes -32.9482
97
root -5.02272 15.1866 38.5677 -173.07 -6.45237 -173.911
lowerback -1.81714 1.03298 9.74316
upperback 1.81172 0.719157 3.07091
thorax 3.01795 0.415776 -2.23388
lowerneck 15.3733 -6.67725 -27.0092
upperneck -20.2431 -16.5062 48.7615
head -0.362914 -13.1673 27.5448
rclavicle 1.47101e-014 1.82882e-014
rhumerus -21.5225 19.3141 -90.5075
rradius 26.6341
rwrist 18.2084
rhand -11.0313 -4.71813
rfingers 7.12502
rthumb 14.9904 -34.1556
lclavicle 1.47101e-014 1.82882e-014
lhumerus -34.8099 -26.0425 102.893
lradius 50.6731
lwrist 36.7819
lhand -20.4569 -20.9033
lfingers 7.12502
lthumb 5.89872 8.99454
rfemur -16.7025 0.803121 32.108
rtibia 36.6128
rfoot -27.6394 3.8989
rtoes -14.5501
lfemur -44.2205 0.245108 -13.4893
ltibia 62.1568
lfoot -13.8674 0.473523
ltoes -32.9807
98
root -5.02072 15.1872 38.5245 -173.013 -6.4272 -173.901
lowerback -1.84949 0.957167 9.75375
upperback 1.87127 0.605387 3.0855
thorax 3.08643 0.362529 -2.22905
lowerneck 15.2902 -6.60137 -26.833
upperneck -20.4537 -16.4296 48.9016
head -0.440738 -13.1928 27.6904
rclavicle -3.47873e-015 -4.92986e-014
rhumerus -20.7419 17.4176 -89.9878
rradius 25.1707
rwrist 20.2979
rhand -11.4125 -5.01411
rfingers 7.12502
rthumb 14.6231 -34.4786
lclavicle -3.47873e-015 -4.92986e-014
lhumerus -34.7122 -25.7045 102.62
lradius 50.7986
lwrist 38.1955
lhand -20.335 -20.5701
lfingers 7.12502
lthumb 6.0164 9.32452
rfemur -16.4987 0.814338 32.1406
rtibia 36.4464
rfoot -27.683 3.93008
rtoes -14.5725
lfemur -44.5193 0.198204 -13.7484
ltibia 61.327
lfoot -13.87 0.937914
ltoes -33.0206
